<?xml version="1.0" encoding="UTF-8" standalone="no"?>
<!-- Created with Inkscape (http://www.inkscape.org/) -->

<svg
   xmlns:dc="http://purl.org/dc/elements/1.1/"
   xmlns:cc="http://creativecommons.org/ns#"
   xmlns:rdf="http://www.w3.org/1999/02/22-rdf-syntax-ns#"
   xmlns:svg="http://www.w3.org/2000/svg"
   xmlns="http://www.w3.org/2000/svg"
   xmlns:sodipodi="http://sodipodi.sourceforge.net/DTD/sodipodi-0.dtd"
   xmlns:inkscape="http://www.inkscape.org/namespaces/inkscape"
   width="500"
   height="500"
   id="svg2"
   version="1.1"
   inkscape:version="0.48.0 r9654"
   sodipodi:docname="10.12.15-1.svg">
  <defs
     id="defs4" />
  <sodipodi:namedview
     id="base"
     pagecolor="#ffffff"
     bordercolor="#666666"
     borderopacity="1.0"
     inkscape:pageopacity="1"
     inkscape:pageshadow="2"
     inkscape:zoom="0.7"
     inkscape:cx="43.444213"
     inkscape:cy="271.8894"
     inkscape:document-units="px"
     inkscape:current-layer="layer1"
     showgrid="false"
     inkscape:window-width="1364"
     inkscape:window-height="766"
     inkscape:window-x="0"
     inkscape:window-y="0"
     inkscape:window-maximized="0" />
  <metadata
     id="metadata7">
    <rdf:RDF>
      <cc:Work
         rdf:about="">
        <dc:format>image/svg+xml</dc:format>
        <dc:type
           rdf:resource="http://purl.org/dc/dcmitype/StillImage" />
        <dc:title />
      </cc:Work>
    </rdf:RDF>
  </metadata>
  <g
     inkscape:label="Layer 1"
     inkscape:groupmode="layer"
     id="layer1"
     transform="translate(0,-552.36218)">
    <path
       style="fill:none;stroke:#0a0b04;stroke-width:7.14261198;stroke-linecap:butt;stroke-linejoin:miter;stroke-miterlimit:4;stroke-opacity:1;stroke-dasharray:none"
       d="m 18.161161,578.07258 0,145.2714 79.440187,-65.31586 z"
       id="path2982"
       inkscape:connector-curvature="0" />
    <path
       style="fill:none;stroke:#0a0b04;stroke-width:7.14261198;stroke-linecap:butt;stroke-linejoin:miter;stroke-miterlimit:4;stroke-opacity:1;stroke-dasharray:none"
       d="m 211.24494,574.1311 0,145.27138 -79.44019,-65.31578 z"
       id="path2982-3"
       inkscape:connector-curvature="0" />
    <path
       style="fill:none;stroke:#0a0b04;stroke-width:7.14261198;stroke-linecap:butt;stroke-linejoin:miter;stroke-miterlimit:4;stroke-opacity:1;stroke-dasharray:none"
       d="m 318.82017,585.11091 0,145.2714 79.44013,-65.31582 z"
       id="path2982-6"
       inkscape:connector-curvature="0" />
    <path
       style="fill:none;stroke:#0a0b04;stroke-width:7.14261198;stroke-linecap:butt;stroke-linejoin:miter;stroke-miterlimit:4;stroke-opacity:1;stroke-dasharray:none"
       d="m 478.80383,584.54788 0,145.27137 -79.44019,-65.31584 z"
       id="path2982-3-1"
       inkscape:connector-curvature="0" />
    <path
       sodipodi:type="arc"
       style="fill:#000000;fill-opacity:1;fill-rule:evenodd;stroke:#000000;stroke-width:1px;stroke-linecap:butt;stroke-linejoin:miter;stroke-opacity:1"
       id="path3023"
       sodipodi:cx="52.527931"
       sodipodi:cy="60.078564"
       sodipodi:rx="10.101525"
       sodipodi:ry="10.606602"
       d="m 62.629457,60.078564 a 10.101525,10.606602 0 1 1 -20.203051,0 10.101525,10.606602 0 1 1 20.203051,0 z"
       transform="matrix(1.0922468,0,0,1.1148166,-39.212308,509.40678)" />
    <path
       transform="matrix(1.0922468,0,0,1.1148166,38.622277,589.4623)"
       sodipodi:type="arc"
       style="fill:#000000;fill-opacity:1;fill-rule:evenodd;stroke:#000000;stroke-width:1px;stroke-linecap:butt;stroke-linejoin:miter;stroke-opacity:1"
       id="path3023-2"
       sodipodi:cx="52.527931"
       sodipodi:cy="60.078564"
       sodipodi:rx="10.101525"
       sodipodi:ry="10.606602"
       d="m 62.629457,60.078564 a 10.101525,10.606602 0 1 1 -20.203051,0 10.101525,10.606602 0 1 1 20.203051,0 z" />
    <path
       transform="matrix(1.0922468,0,0,1.1148166,75.534627,588.7993)"
       sodipodi:type="arc"
       style="fill:#000000;fill-opacity:1;fill-rule:evenodd;stroke:#000000;stroke-width:1px;stroke-linecap:butt;stroke-linejoin:miter;stroke-opacity:1"
       id="path3023-9"
       sodipodi:cx="52.527931"
       sodipodi:cy="60.078564"
       sodipodi:rx="10.101525"
       sodipodi:ry="10.606602"
       d="m 62.629457,60.078564 a 10.101525,10.606602 0 1 1 -20.203051,0 10.101525,10.606602 0 1 1 20.203051,0 z" />
    <path
       transform="matrix(1.0922468,0,0,1.1148166,150.56146,512.22211)"
       sodipodi:type="arc"
       style="fill:#000000;fill-opacity:1;fill-rule:evenodd;stroke:#000000;stroke-width:1px;stroke-linecap:butt;stroke-linejoin:miter;stroke-opacity:1"
       id="path3023-3"
       sodipodi:cx="52.527931"
       sodipodi:cy="60.078564"
       sodipodi:rx="10.101525"
       sodipodi:ry="10.606602"
       d="m 62.629457,60.078564 a 10.101525,10.606602 0 1 1 -20.203051,0 10.101525,10.606602 0 1 1 20.203051,0 z" />
    <path
       transform="matrix(1.0922468,0,0,1.1148166,153.87147,650.73671)"
       sodipodi:type="arc"
       style="fill:#000000;fill-opacity:1;fill-rule:evenodd;stroke:#000000;stroke-width:1px;stroke-linecap:butt;stroke-linejoin:miter;stroke-opacity:1"
       id="path3023-1"
       sodipodi:cx="52.527931"
       sodipodi:cy="60.078564"
       sodipodi:rx="10.101525"
       sodipodi:ry="10.606602"
       d="m 62.629457,60.078564 a 10.101525,10.606602 0 1 1 -20.203051,0 10.101525,10.606602 0 1 1 20.203051,0 z" />
    <path
       transform="matrix(1.0922468,0,0,1.1148166,-37.005634,650.73675)"
       sodipodi:type="arc"
       style="fill:#000000;fill-opacity:1;fill-rule:evenodd;stroke:#000000;stroke-width:1px;stroke-linecap:butt;stroke-linejoin:miter;stroke-opacity:1"
       id="path3023-94"
       sodipodi:cx="52.527931"
       sodipodi:cy="60.078564"
       sodipodi:rx="10.101525"
       sodipodi:ry="10.606602"
       d="m 62.629457,60.078564 a 10.101525,10.606602 0 1 1 -20.203051,0 10.101525,10.606602 0 1 1 20.203051,0 z" />
    <path
       transform="matrix(1.0922468,0,0,1.1148166,338.12857,597.80835)"
       sodipodi:type="arc"
       style="fill:#000000;fill-opacity:1;fill-rule:evenodd;stroke:#000000;stroke-width:1px;stroke-linecap:butt;stroke-linejoin:miter;stroke-opacity:1"
       id="path3023-7"
       sodipodi:cx="52.527931"
       sodipodi:cy="60.078564"
       sodipodi:rx="10.101525"
       sodipodi:ry="10.606602"
       d="m 62.629457,60.078564 a 10.101525,10.606602 0 1 1 -20.203051,0 10.101525,10.606602 0 1 1 20.203051,0 z" />
    <path
       transform="matrix(1.0922468,0,0,1.1148166,418.6721,521.23118)"
       sodipodi:type="arc"
       style="fill:#000000;fill-opacity:1;fill-rule:evenodd;stroke:#000000;stroke-width:1px;stroke-linecap:butt;stroke-linejoin:miter;stroke-opacity:1"
       id="path3023-8"
       sodipodi:cx="52.527931"
       sodipodi:cy="60.078564"
       sodipodi:rx="10.101525"
       sodipodi:ry="10.606602"
       d="m 62.629457,60.078564 a 10.101525,10.606602 0 1 1 -20.203051,0 10.101525,10.606602 0 1 1 20.203051,0 z" />
    <path
       transform="matrix(1.0922468,0,0,1.1148166,418.6721,656.3674)"
       sodipodi:type="arc"
       style="fill:#000000;fill-opacity:1;fill-rule:evenodd;stroke:#000000;stroke-width:1px;stroke-linecap:butt;stroke-linejoin:miter;stroke-opacity:1"
       id="path3023-4"
       sodipodi:cx="52.527931"
       sodipodi:cy="60.078564"
       sodipodi:rx="10.101525"
       sodipodi:ry="10.606602"
       d="m 62.629457,60.078564 a 10.101525,10.606602 0 1 1 -20.203051,0 10.101525,10.606602 0 1 1 20.203051,0 z" />
    <path
       transform="matrix(1.0922468,0,0,1.1148166,263.10172,513.34828)"
       sodipodi:type="arc"
       style="fill:#000000;fill-opacity:1;fill-rule:evenodd;stroke:#000000;stroke-width:1px;stroke-linecap:butt;stroke-linejoin:miter;stroke-opacity:1"
       id="path3023-5"
       sodipodi:cx="52.527931"
       sodipodi:cy="60.078564"
       sodipodi:rx="10.101525"
       sodipodi:ry="10.606602"
       d="m 62.629457,60.078564 a 10.101525,10.606602 0 1 1 -20.203051,0 10.101525,10.606602 0 1 1 20.203051,0 z" />
    <path
       transform="matrix(1.0922468,0,0,1.1148166,261.99838,660.87193)"
       sodipodi:type="arc"
       style="fill:#000000;fill-opacity:1;fill-rule:evenodd;stroke:#000000;stroke-width:1px;stroke-linecap:butt;stroke-linejoin:miter;stroke-opacity:1"
       id="path3023-0"
       sodipodi:cx="52.527931"
       sodipodi:cy="60.078564"
       sodipodi:rx="10.101525"
       sodipodi:ry="10.606602"
       d="m 62.629457,60.078564 a 10.101525,10.606602 0 1 1 -20.203051,0 10.101525,10.606602 0 1 1 20.203051,0 z" />
    <rect
       style="fill:none;stroke:#0a0b04;stroke-width:7.14261198;stroke-miterlimit:4;stroke-opacity:1;stroke-dasharray:none"
       id="rect3874"
       width="163.2937"
       height="236.48828"
       x="25.88451"
       y="798.79492" />
    <path
       style="fill:none;stroke:#0a0b04;stroke-width:7.14261198;stroke-linecap:butt;stroke-linejoin:miter;stroke-miterlimit:4;stroke-opacity:1;stroke-dasharray:none"
       d="M 25.884509,798.795 189.17821,923.79579 26.987849,1033.0309"
       id="path3876"
       inkscape:connector-curvature="0" />
    <rect
       style="fill:none;stroke:#0a0b04;stroke-width:7.14261198;stroke-miterlimit:4;stroke-opacity:1;stroke-dasharray:none"
       id="rect3874-3"
       width="163.2937"
       height="236.48828"
       x="288.47842"
       y="794.29071" />
    <path
       style="fill:none;stroke:#0a0b04;stroke-width:7.14261198;stroke-linecap:butt;stroke-linejoin:miter;stroke-miterlimit:4;stroke-opacity:1;stroke-dasharray:none"
       d="m 288.47845,796.54278 161.08704,123.8747"
       id="path3899"
       inkscape:connector-curvature="0" />
    <path
       style="fill:none;stroke:#0a0b04;stroke-width:7.14261198;stroke-linecap:butt;stroke-linejoin:miter;stroke-miterlimit:4;stroke-opacity:1;stroke-dasharray:none"
       d="M 287.37511,919.29138 450.66882,1029.6526"
       id="path3901"
       inkscape:connector-curvature="0" />
    <path
       sodipodi:type="arc"
       style="fill:#000000;fill-opacity:1;fill-rule:evenodd;stroke:#000000;stroke-width:1px;stroke-linecap:butt;stroke-linejoin:miter;stroke-opacity:1"
       id="path3023-6"
       sodipodi:cx="52.527931"
       sodipodi:cy="60.078564"
       sodipodi:rx="10.101525"
       sodipodi:ry="10.606602"
       d="m 62.629457,60.078564 a 10.101525,10.606602 0 1 1 -20.203051,0 10.101525,10.606602 0 1 1 20.203051,0 z"
       transform="matrix(1.0922468,0,0,1.1148166,-29.282281,730.69225)" />
    <path
       sodipodi:type="arc"
       style="fill:#000000;fill-opacity:1;fill-rule:evenodd;stroke:#000000;stroke-width:1px;stroke-linecap:butt;stroke-linejoin:miter;stroke-opacity:1"
       id="path3023-32"
       sodipodi:cx="52.527931"
       sodipodi:cy="60.078564"
       sodipodi:rx="10.101525"
       sodipodi:ry="10.606602"
       d="m 62.629457,60.078564 a 10.101525,10.606602 0 1 1 -20.203051,0 10.101525,10.606602 0 1 1 20.203051,0 z"
       transform="matrix(1.0922468,0,0,1.1148166,125.18474,731.81842)" />
    <path
       sodipodi:type="arc"
       style="fill:#000000;fill-opacity:1;fill-rule:evenodd;stroke:#000000;stroke-width:1px;stroke-linecap:butt;stroke-linejoin:miter;stroke-opacity:1"
       id="path3023-06"
       sodipodi:cx="52.527931"
       sodipodi:cy="60.078564"
       sodipodi:rx="10.101525"
       sodipodi:ry="10.606602"
       d="m 62.629457,60.078564 a 10.101525,10.606602 0 1 1 -20.203051,0 10.101525,10.606602 0 1 1 20.203051,0 z"
       transform="matrix(1.0922468,0,0,1.1148166,130.70141,854.56716)" />
    <path
       sodipodi:type="arc"
       style="fill:#000000;fill-opacity:1;fill-rule:evenodd;stroke:#000000;stroke-width:1px;stroke-linecap:butt;stroke-linejoin:miter;stroke-opacity:1"
       id="path3023-15"
       sodipodi:cx="52.527931"
       sodipodi:cy="60.078564"
       sodipodi:rx="10.101525"
       sodipodi:ry="10.606602"
       d="m 62.629457,60.078564 a 10.101525,10.606602 0 1 1 -20.203051,0 10.101525,10.606602 0 1 1 20.203051,0 z"
       transform="matrix(1.0922468,0,0,1.1148166,130.70143,963.8021)" />
    <path
       sodipodi:type="arc"
       style="fill:#000000;fill-opacity:1;fill-rule:evenodd;stroke:#000000;stroke-width:1px;stroke-linecap:butt;stroke-linejoin:miter;stroke-opacity:1"
       id="path3023-54"
       sodipodi:cx="52.527931"
       sodipodi:cy="60.078564"
       sodipodi:rx="10.101525"
       sodipodi:ry="10.606602"
       d="m 62.629457,60.078564 a 10.101525,10.606602 0 1 1 -20.203051,0 10.101525,10.606602 0 1 1 20.203051,0 z"
       transform="matrix(1.0922468,0,0,1.1148166,-28.178947,964.92813)" />
    <path
       sodipodi:type="arc"
       style="fill:#000000;fill-opacity:1;fill-rule:evenodd;stroke:#000000;stroke-width:1px;stroke-linecap:butt;stroke-linejoin:miter;stroke-opacity:1"
       id="path3023-76"
       sodipodi:cx="52.527931"
       sodipodi:cy="60.078564"
       sodipodi:rx="10.101525"
       sodipodi:ry="10.606602"
       d="m 62.629457,60.078564 a 10.101525,10.606602 0 1 1 -20.203051,0 10.101525,10.606602 0 1 1 20.203051,0 z"
       transform="matrix(1.0922468,0,0,1.1148166,-37.00563,847.81026)" />
    <path
       sodipodi:type="arc"
       style="fill:#000000;fill-opacity:1;fill-rule:evenodd;stroke:#000000;stroke-width:1px;stroke-linecap:butt;stroke-linejoin:miter;stroke-opacity:1"
       id="path3023-56"
       sodipodi:cx="52.527931"
       sodipodi:cy="60.078564"
       sodipodi:rx="10.101525"
       sodipodi:ry="10.606602"
       d="m 62.629457,60.078564 a 10.101525,10.606602 0 1 1 -20.203051,0 10.101525,10.606602 0 1 1 20.203051,0 z"
       transform="matrix(1.0922468,0,0,1.1148166,228.8983,853.44101)" />
    <path
       sodipodi:type="arc"
       style="fill:#000000;fill-opacity:1;fill-rule:evenodd;stroke:#000000;stroke-width:1px;stroke-linecap:butt;stroke-linejoin:miter;stroke-opacity:1"
       id="path3023-93"
       sodipodi:cx="52.527931"
       sodipodi:cy="60.078564"
       sodipodi:rx="10.101525"
       sodipodi:ry="10.606602"
       d="m 62.629457,60.078564 a 10.101525,10.606602 0 1 1 -20.203051,0 10.101525,10.606602 0 1 1 20.203051,0 z"
       transform="matrix(1.0922468,0,0,1.1148166,393.29537,856.81935)" />
    <path
       sodipodi:type="arc"
       style="fill:#000000;fill-opacity:1;fill-rule:evenodd;stroke:#000000;stroke-width:1px;stroke-linecap:butt;stroke-linejoin:miter;stroke-opacity:1"
       id="path3023-74"
       sodipodi:cx="52.527931"
       sodipodi:cy="60.078564"
       sodipodi:rx="10.101525"
       sodipodi:ry="10.606602"
       d="m 62.629457,60.078564 a 10.101525,10.606602 0 1 1 -20.203051,0 10.101525,10.606602 0 1 1 20.203051,0 z"
       transform="matrix(1.0922468,0,0,1.1148166,394.39871,958.17156)" />
    <path
       sodipodi:type="arc"
       style="fill:#000000;fill-opacity:1;fill-rule:evenodd;stroke:#000000;stroke-width:1px;stroke-linecap:butt;stroke-linejoin:miter;stroke-opacity:1"
       id="path3023-52"
       sodipodi:cx="52.527931"
       sodipodi:cy="60.078564"
       sodipodi:rx="10.101525"
       sodipodi:ry="10.606602"
       d="m 62.629457,60.078564 a 10.101525,10.606602 0 1 1 -20.203051,0 10.101525,10.606602 0 1 1 20.203051,0 z"
       transform="matrix(1.0922468,0,0,1.1148166,231.10497,959.29779)" />
    <path
       sodipodi:type="arc"
       style="fill:#000000;fill-opacity:1;fill-rule:evenodd;stroke:#000000;stroke-width:1px;stroke-linecap:butt;stroke-linejoin:miter;stroke-opacity:1"
       id="path3023-547"
       sodipodi:cx="52.527931"
       sodipodi:cy="60.078564"
       sodipodi:rx="10.101525"
       sodipodi:ry="10.606602"
       d="m 62.629457,60.078564 a 10.101525,10.606602 0 1 1 -20.203051,0 10.101525,10.606602 0 1 1 20.203051,0 z"
       transform="matrix(1.0922468,0,0,1.1148166,230.00164,730.69225)" />
    <path
       sodipodi:type="arc"
       style="fill:#000000;fill-opacity:1;fill-rule:evenodd;stroke:#000000;stroke-width:1px;stroke-linecap:butt;stroke-linejoin:miter;stroke-opacity:1"
       id="path3023-44"
       sodipodi:cx="52.527931"
       sodipodi:cy="60.078564"
       sodipodi:rx="10.101525"
       sodipodi:ry="10.606602"
       d="m 62.629457,60.078564 a 10.101525,10.606602 0 1 1 -20.203051,0 10.101525,10.606602 0 1 1 20.203051,0 z"
       transform="matrix(1.0922468,0,0,1.1148166,389.98536,727.31388)" />
  </g>
</svg>
