<?xml version="1.0" encoding="UTF-8" standalone="no"?>
<!-- Created with Inkscape (http://www.inkscape.org/) -->

<svg
   xmlns:dc="http://purl.org/dc/elements/1.1/"
   xmlns:cc="http://creativecommons.org/ns#"
   xmlns:rdf="http://www.w3.org/1999/02/22-rdf-syntax-ns#"
   xmlns:svg="http://www.w3.org/2000/svg"
   xmlns="http://www.w3.org/2000/svg"
   xmlns:sodipodi="http://sodipodi.sourceforge.net/DTD/sodipodi-0.dtd"
   xmlns:inkscape="http://www.inkscape.org/namespaces/inkscape"
   width="250"
   height="250"
   id="svg2"
   version="1.1"
   inkscape:version="0.48.0 r9654"
   sodipodi:docname="10.12.15-1.svg">
  <defs
     id="defs4" />
  <sodipodi:namedview
     id="base"
     pagecolor="#ffffff"
     bordercolor="#666666"
     borderopacity="1.0"
     inkscape:pageopacity="1"
     inkscape:pageshadow="2"
     inkscape:zoom="0.7"
     inkscape:cx="43.444213"
     inkscape:cy="271.8894"
     inkscape:document-units="px"
     inkscape:current-layer="layer1"
     showgrid="false"
     inkscape:window-width="1364"
     inkscape:window-height="766"
     inkscape:window-x="0"
     inkscape:window-y="0"
     inkscape:window-maximized="0" />
  <metadata
     id="metadata7">
    <rdf:RDF>
      <cc:Work
         rdf:about="">
        <dc:format>image/svg+xml</dc:format>
        <dc:type
           rdf:resource="http://purl.org/dc/dcmitype/StillImage" />
        <dc:title />
      </cc:Work>
    </rdf:RDF>
  </metadata>
  <g
     inkscape:label="Layer 1"
     inkscape:groupmode="layer"
     id="layer1"
     transform="translate(0,-802.36218)">
    <path
       style="fill:none;stroke:#0a0b04;stroke-width:3.38468814;stroke-linecap:butt;stroke-linejoin:miter;stroke-miterlimit:4;stroke-opacity:1;stroke-dasharray:none"
       d="m 11.979747,819.35294 0,70.09174 36.972326,-31.51413 z"
       id="path2982"
       inkscape:connector-curvature="0" />
    <path
       style="fill:none;stroke:#0a0b04;stroke-width:3.38468814;stroke-linecap:butt;stroke-linejoin:miter;stroke-miterlimit:4;stroke-opacity:1;stroke-dasharray:none"
       d="m 101.84303,817.45122 0,70.09173 -36.972323,-31.51409 z"
       id="path2982-3"
       inkscape:connector-curvature="0" />
    <path
       style="fill:none;stroke:#0a0b04;stroke-width:3.38468814;stroke-linecap:butt;stroke-linejoin:miter;stroke-miterlimit:4;stroke-opacity:1;stroke-dasharray:none"
       d="m 151.90971,822.74885 0,70.09174 36.9723,-31.51411 z"
       id="path2982-6"
       inkscape:connector-curvature="0" />
    <path
       style="fill:none;stroke:#0a0b04;stroke-width:3.38468814;stroke-linecap:butt;stroke-linejoin:miter;stroke-miterlimit:4;stroke-opacity:1;stroke-dasharray:none"
       d="m 226.36785,822.4772 0,70.09172 -36.97233,-31.51412 z"
       id="path2982-3-1"
       inkscape:connector-curvature="0" />
    <path
       sodipodi:type="arc"
       style="fill:#000000;fill-opacity:1;fill-rule:evenodd;stroke:#000000;stroke-width:1px;stroke-linecap:butt;stroke-linejoin:miter;stroke-opacity:1"
       id="path3023"
       sodipodi:cx="52.527931"
       sodipodi:cy="60.078564"
       sodipodi:rx="10.101525"
       sodipodi:ry="10.606602"
       d="m 62.629457,60.078564 c 0,5.857864 -4.522607,10.606601 -10.101526,10.606601 -5.578918,0 -10.101525,-4.748737 -10.101525,-10.606601 0,-5.857865 4.522607,-10.606602 10.101525,-10.606602 5.578919,0 10.101526,4.748737 10.101526,10.606602 z"
       transform="matrix(0.50834352,0,0,0.53788585,-14.722488,786.2225)" />
    <path
       transform="matrix(0.50834352,0,0,0.53788585,21.502573,824.84835)"
       sodipodi:type="arc"
       style="fill:#000000;fill-opacity:1;fill-rule:evenodd;stroke:#000000;stroke-width:1px;stroke-linecap:butt;stroke-linejoin:miter;stroke-opacity:1"
       id="path3023-2"
       sodipodi:cx="52.527931"
       sodipodi:cy="60.078564"
       sodipodi:rx="10.101525"
       sodipodi:ry="10.606602"
       d="m 62.629457,60.078564 c 0,5.857864 -4.522607,10.606601 -10.101526,10.606601 -5.578918,0 -10.101525,-4.748737 -10.101525,-10.606601 0,-5.857865 4.522607,-10.606602 10.101525,-10.606602 5.578919,0 10.101526,4.748737 10.101526,10.606602 z" />
    <path
       transform="matrix(0.50834352,0,0,0.53788585,38.681981,824.52846)"
       sodipodi:type="arc"
       style="fill:#000000;fill-opacity:1;fill-rule:evenodd;stroke:#000000;stroke-width:1px;stroke-linecap:butt;stroke-linejoin:miter;stroke-opacity:1"
       id="path3023-9"
       sodipodi:cx="52.527931"
       sodipodi:cy="60.078564"
       sodipodi:rx="10.101525"
       sodipodi:ry="10.606602"
       d="m 62.629457,60.078564 c 0,5.857864 -4.522607,10.606601 -10.101526,10.606601 -5.578918,0 -10.101525,-4.748737 -10.101525,-10.606601 0,-5.857865 4.522607,-10.606602 10.101525,-10.606602 5.578919,0 10.101526,4.748737 10.101526,10.606602 z" />
    <path
       transform="matrix(0.50834352,0,0,0.53788585,73.600284,787.58087)"
       sodipodi:type="arc"
       style="fill:#000000;fill-opacity:1;fill-rule:evenodd;stroke:#000000;stroke-width:1px;stroke-linecap:butt;stroke-linejoin:miter;stroke-opacity:1"
       id="path3023-3"
       sodipodi:cx="52.527931"
       sodipodi:cy="60.078564"
       sodipodi:rx="10.101525"
       sodipodi:ry="10.606602"
       d="m 62.629457,60.078564 c 0,5.857864 -4.522607,10.606601 -10.101526,10.606601 -5.578918,0 -10.101525,-4.748737 -10.101525,-10.606601 0,-5.857865 4.522607,-10.606602 10.101525,-10.606602 5.578919,0 10.101526,4.748737 10.101526,10.606602 z" />
    <path
       transform="matrix(0.50834352,0,0,0.53788585,75.140798,854.41253)"
       sodipodi:type="arc"
       style="fill:#000000;fill-opacity:1;fill-rule:evenodd;stroke:#000000;stroke-width:1px;stroke-linecap:butt;stroke-linejoin:miter;stroke-opacity:1"
       id="path3023-1"
       sodipodi:cx="52.527931"
       sodipodi:cy="60.078564"
       sodipodi:rx="10.101525"
       sodipodi:ry="10.606602"
       d="m 62.629457,60.078564 c 0,5.857864 -4.522607,10.606601 -10.101526,10.606601 -5.578918,0 -10.101525,-4.748737 -10.101525,-10.606601 0,-5.857865 4.522607,-10.606602 10.101525,-10.606602 5.578919,0 10.101526,4.748737 10.101526,10.606602 z" />
    <path
       transform="matrix(0.50834352,0,0,0.53788585,-13.695478,854.41255)"
       sodipodi:type="arc"
       style="fill:#000000;fill-opacity:1;fill-rule:evenodd;stroke:#000000;stroke-width:1px;stroke-linecap:butt;stroke-linejoin:miter;stroke-opacity:1"
       id="path3023-94"
       sodipodi:cx="52.527931"
       sodipodi:cy="60.078564"
       sodipodi:rx="10.101525"
       sodipodi:ry="10.606602"
       d="m 62.629457,60.078564 c 0,5.857864 -4.522607,10.606601 -10.101526,10.606601 -5.578918,0 -10.101525,-4.748737 -10.101525,-10.606601 0,-5.857865 4.522607,-10.606602 10.101525,-10.606602 5.578919,0 10.101526,4.748737 10.101526,10.606602 z" />
    <path
       transform="matrix(0.50834352,0,0,0.53788585,160.89605,828.87522)"
       sodipodi:type="arc"
       style="fill:#000000;fill-opacity:1;fill-rule:evenodd;stroke:#000000;stroke-width:1px;stroke-linecap:butt;stroke-linejoin:miter;stroke-opacity:1"
       id="path3023-7"
       sodipodi:cx="52.527931"
       sodipodi:cy="60.078564"
       sodipodi:rx="10.101525"
       sodipodi:ry="10.606602"
       d="m 62.629457,60.078564 c 0,5.857864 -4.522607,10.606601 -10.101526,10.606601 -5.578918,0 -10.101525,-4.748737 -10.101525,-10.606601 0,-5.857865 4.522607,-10.606602 10.101525,-10.606602 5.578919,0 10.101526,4.748737 10.101526,10.606602 z" />
    <path
       transform="matrix(0.50834352,0,0,0.53788585,198.38189,791.92764)"
       sodipodi:type="arc"
       style="fill:#000000;fill-opacity:1;fill-rule:evenodd;stroke:#000000;stroke-width:1px;stroke-linecap:butt;stroke-linejoin:miter;stroke-opacity:1"
       id="path3023-8"
       sodipodi:cx="52.527931"
       sodipodi:cy="60.078564"
       sodipodi:rx="10.101525"
       sodipodi:ry="10.606602"
       d="m 62.629457,60.078564 c 0,5.857864 -4.522607,10.606601 -10.101526,10.606601 -5.578918,0 -10.101525,-4.748737 -10.101525,-10.606601 0,-5.857865 4.522607,-10.606602 10.101525,-10.606602 5.578919,0 10.101526,4.748737 10.101526,10.606602 z" />
    <path
       transform="matrix(0.50834352,0,0,0.53788585,198.38189,857.12927)"
       sodipodi:type="arc"
       style="fill:#000000;fill-opacity:1;fill-rule:evenodd;stroke:#000000;stroke-width:1px;stroke-linecap:butt;stroke-linejoin:miter;stroke-opacity:1"
       id="path3023-4"
       sodipodi:cx="52.527931"
       sodipodi:cy="60.078564"
       sodipodi:rx="10.101525"
       sodipodi:ry="10.606602"
       d="m 62.629457,60.078564 c 0,5.857864 -4.522607,10.606601 -10.101526,10.606601 -5.578918,0 -10.101525,-4.748737 -10.101525,-10.606601 0,-5.857865 4.522607,-10.606602 10.101525,-10.606602 5.578919,0 10.101526,4.748737 10.101526,10.606602 z" />
    <path
       transform="matrix(0.50834352,0,0,0.53788585,125.97774,788.12423)"
       sodipodi:type="arc"
       style="fill:#000000;fill-opacity:1;fill-rule:evenodd;stroke:#000000;stroke-width:1px;stroke-linecap:butt;stroke-linejoin:miter;stroke-opacity:1"
       id="path3023-5"
       sodipodi:cx="52.527931"
       sodipodi:cy="60.078564"
       sodipodi:rx="10.101525"
       sodipodi:ry="10.606602"
       d="m 62.629457,60.078564 c 0,5.857864 -4.522607,10.606601 -10.101526,10.606601 -5.578918,0 -10.101525,-4.748737 -10.101525,-10.606601 0,-5.857865 4.522607,-10.606602 10.101525,-10.606602 5.578919,0 10.101526,4.748737 10.101526,10.606602 z" />
    <path
       transform="matrix(0.50834352,0,0,0.53788585,125.46424,859.30265)"
       sodipodi:type="arc"
       style="fill:#000000;fill-opacity:1;fill-rule:evenodd;stroke:#000000;stroke-width:1px;stroke-linecap:butt;stroke-linejoin:miter;stroke-opacity:1"
       id="path3023-0"
       sodipodi:cx="52.527931"
       sodipodi:cy="60.078564"
       sodipodi:rx="10.101525"
       sodipodi:ry="10.606602"
       d="m 62.629457,60.078564 c 0,5.857864 -4.522607,10.606601 -10.101526,10.606601 -5.578918,0 -10.101525,-4.748737 -10.101525,-10.606601 0,-5.857865 4.522607,-10.606602 10.101525,-10.606602 5.578919,0 10.101526,4.748737 10.101526,10.606602 z" />
    <rect
       style="fill:none;stroke:#0a0b04;stroke-width:3.38468814;stroke-miterlimit:4;stroke-opacity:1;stroke-dasharray:none"
       id="rect3874"
       width="75.998665"
       height="114.10281"
       x="15.574278"
       y="925.84888" />
    <path
       style="fill:none;stroke:#0a0b04;stroke-width:3.38468814;stroke-linecap:butt;stroke-linejoin:miter;stroke-miterlimit:4;stroke-opacity:1;stroke-dasharray:none"
       d="M 15.574277,925.8489 91.572938,986.16031 16.087784,1038.865"
       id="path3876"
       inkscape:connector-curvature="0" />
    <rect
       style="fill:none;stroke:#0a0b04;stroke-width:3.38468814;stroke-miterlimit:4;stroke-opacity:1;stroke-dasharray:none"
       id="rect3874-3"
       width="75.998665"
       height="114.10281"
       x="137.78833"
       y="923.67566" />
    <path
       style="fill:none;stroke:#0a0b04;stroke-width:3.38468814;stroke-linecap:butt;stroke-linejoin:miter;stroke-miterlimit:4;stroke-opacity:1;stroke-dasharray:none"
       d="M 137.78835,924.76223 212.76,984.53031"
       id="path3899"
       inkscape:connector-curvature="0" />
    <path
       style="fill:none;stroke:#0a0b04;stroke-width:3.38468814;stroke-linecap:butt;stroke-linejoin:miter;stroke-miterlimit:4;stroke-opacity:1;stroke-dasharray:none"
       d="m 137.27484,983.98698 75.99867,53.24802"
       id="path3901"
       inkscape:connector-curvature="0" />
    <path
       sodipodi:type="arc"
       style="fill:#000000;fill-opacity:1;fill-rule:evenodd;stroke:#000000;stroke-width:1px;stroke-linecap:butt;stroke-linejoin:miter;stroke-opacity:1"
       id="path3023-6"
       sodipodi:cx="52.527931"
       sodipodi:cy="60.078564"
       sodipodi:rx="10.101525"
       sodipodi:ry="10.606602"
       d="m 62.629457,60.078564 c 0,5.857864 -4.522607,10.606601 -10.101526,10.606601 -5.578918,0 -10.101525,-4.748737 -10.101525,-10.606601 0,-5.857865 4.522607,-10.606602 10.101525,-10.606602 5.578919,0 10.101526,4.748737 10.101526,10.606602 z"
       transform="matrix(0.50834352,0,0,0.53788585,-10.100946,892.99013)" />
    <path
       sodipodi:type="arc"
       style="fill:#000000;fill-opacity:1;fill-rule:evenodd;stroke:#000000;stroke-width:1px;stroke-linecap:butt;stroke-linejoin:miter;stroke-opacity:1"
       id="path3023-32"
       sodipodi:cx="52.527931"
       sodipodi:cy="60.078564"
       sodipodi:rx="10.101525"
       sodipodi:ry="10.606602"
       d="m 62.629457,60.078564 c 0,5.857864 -4.522607,10.606601 -10.101526,10.606601 -5.578918,0 -10.101525,-4.748737 -10.101525,-10.606601 0,-5.857865 4.522607,-10.606602 10.101525,-10.606602 5.578919,0 10.101526,4.748737 10.101526,10.606602 z"
       transform="matrix(0.50834352,0,0,0.53788585,61.789683,893.53349)" />
    <path
       sodipodi:type="arc"
       style="fill:#000000;fill-opacity:1;fill-rule:evenodd;stroke:#000000;stroke-width:1px;stroke-linecap:butt;stroke-linejoin:miter;stroke-opacity:1"
       id="path3023-06"
       sodipodi:cx="52.527931"
       sodipodi:cy="60.078564"
       sodipodi:rx="10.101525"
       sodipodi:ry="10.606602"
       d="m 62.629457,60.078564 c 0,5.857864 -4.522607,10.606601 -10.101526,10.606601 -5.578918,0 -10.101525,-4.748737 -10.101525,-10.606601 0,-5.857865 4.522607,-10.606602 10.101525,-10.606602 5.578919,0 10.101526,4.748737 10.101526,10.606602 z"
       transform="matrix(0.50834352,0,0,0.53788585,64.357201,952.75831)" />
    <path
       sodipodi:type="arc"
       style="fill:#000000;fill-opacity:1;fill-rule:evenodd;stroke:#000000;stroke-width:1px;stroke-linecap:butt;stroke-linejoin:miter;stroke-opacity:1"
       id="path3023-15"
       sodipodi:cx="52.527931"
       sodipodi:cy="60.078564"
       sodipodi:rx="10.101525"
       sodipodi:ry="10.606602"
       d="m 62.629457,60.078564 c 0,5.857864 -4.522607,10.606601 -10.101526,10.606601 -5.578918,0 -10.101525,-4.748737 -10.101525,-10.606601 0,-5.857865 4.522607,-10.606602 10.101525,-10.606602 5.578919,0 10.101526,4.748737 10.101526,10.606602 z"
       transform="matrix(0.50834352,0,0,0.53788585,64.35721,1005.4629)" />
    <path
       sodipodi:type="arc"
       style="fill:#000000;fill-opacity:1;fill-rule:evenodd;stroke:#000000;stroke-width:1px;stroke-linecap:butt;stroke-linejoin:miter;stroke-opacity:1"
       id="path3023-54"
       sodipodi:cx="52.527931"
       sodipodi:cy="60.078564"
       sodipodi:rx="10.101525"
       sodipodi:ry="10.606602"
       d="m 62.629457,60.078564 c 0,5.857864 -4.522607,10.606601 -10.101526,10.606601 -5.578918,0 -10.101525,-4.748737 -10.101525,-10.606601 0,-5.857865 4.522607,-10.606602 10.101525,-10.606602 5.578919,0 10.101526,4.748737 10.101526,10.606602 z"
       transform="matrix(0.50834352,0,0,0.53788585,-9.5874421,1006.0062)" />
    <path
       sodipodi:type="arc"
       style="fill:#000000;fill-opacity:1;fill-rule:evenodd;stroke:#000000;stroke-width:1px;stroke-linecap:butt;stroke-linejoin:miter;stroke-opacity:1"
       id="path3023-76"
       sodipodi:cx="52.527931"
       sodipodi:cy="60.078564"
       sodipodi:rx="10.101525"
       sodipodi:ry="10.606602"
       d="m 62.629457,60.078564 c 0,5.857864 -4.522607,10.606601 -10.101526,10.606601 -5.578918,0 -10.101525,-4.748737 -10.101525,-10.606601 0,-5.857865 4.522607,-10.606602 10.101525,-10.606602 5.578919,0 10.101526,4.748737 10.101526,10.606602 z"
       transform="matrix(0.50834352,0,0,0.53788585,-13.695476,949.49819)" />
    <path
       sodipodi:type="arc"
       style="fill:#000000;fill-opacity:1;fill-rule:evenodd;stroke:#000000;stroke-width:1px;stroke-linecap:butt;stroke-linejoin:miter;stroke-opacity:1"
       id="path3023-56"
       sodipodi:cx="52.527931"
       sodipodi:cy="60.078564"
       sodipodi:rx="10.101525"
       sodipodi:ry="10.606602"
       d="m 62.629457,60.078564 c 0,5.857864 -4.522607,10.606601 -10.101526,10.606601 -5.578918,0 -10.101525,-4.748737 -10.101525,-10.606601 0,-5.857865 4.522607,-10.606602 10.101525,-10.606602 5.578919,0 10.101526,4.748737 10.101526,10.606602 z"
       transform="matrix(0.50834352,0,0,0.53788585,110.0591,952.21496)" />
    <path
       sodipodi:type="arc"
       style="fill:#000000;fill-opacity:1;fill-rule:evenodd;stroke:#000000;stroke-width:1px;stroke-linecap:butt;stroke-linejoin:miter;stroke-opacity:1"
       id="path3023-93"
       sodipodi:cx="52.527931"
       sodipodi:cy="60.078564"
       sodipodi:rx="10.101525"
       sodipodi:ry="10.606602"
       d="m 62.629457,60.078564 c 0,5.857864 -4.522607,10.606601 -10.101526,10.606601 -5.578918,0 -10.101525,-4.748737 -10.101525,-10.606601 0,-5.857865 4.522607,-10.606602 10.101525,-10.606602 5.578919,0 10.101526,4.748737 10.101526,10.606602 z"
       transform="matrix(0.50834352,0,0,0.53788585,186.57128,953.84497)" />
    <path
       sodipodi:type="arc"
       style="fill:#000000;fill-opacity:1;fill-rule:evenodd;stroke:#000000;stroke-width:1px;stroke-linecap:butt;stroke-linejoin:miter;stroke-opacity:1"
       id="path3023-74"
       sodipodi:cx="52.527931"
       sodipodi:cy="60.078564"
       sodipodi:rx="10.101525"
       sodipodi:ry="10.606602"
       d="m 62.629457,60.078564 c 0,5.857864 -4.522607,10.606601 -10.101526,10.606601 -5.578918,0 -10.101525,-4.748737 -10.101525,-10.606601 0,-5.857865 4.522607,-10.606602 10.101525,-10.606602 5.578919,0 10.101526,4.748737 10.101526,10.606602 z"
       transform="matrix(0.50834352,0,0,0.53788585,187.08479,1002.7462)" />
    <path
       sodipodi:type="arc"
       style="fill:#000000;fill-opacity:1;fill-rule:evenodd;stroke:#000000;stroke-width:1px;stroke-linecap:butt;stroke-linejoin:miter;stroke-opacity:1"
       id="path3023-52"
       sodipodi:cx="52.527931"
       sodipodi:cy="60.078564"
       sodipodi:rx="10.101525"
       sodipodi:ry="10.606602"
       d="m 62.629457,60.078564 c 0,5.857864 -4.522607,10.606601 -10.101526,10.606601 -5.578918,0 -10.101525,-4.748737 -10.101525,-10.606601 0,-5.857865 4.522607,-10.606602 10.101525,-10.606602 5.578919,0 10.101526,4.748737 10.101526,10.606602 z"
       transform="matrix(0.50834352,0,0,0.53788585,111.08611,1003.2896)" />
    <path
       sodipodi:type="arc"
       style="fill:#000000;fill-opacity:1;fill-rule:evenodd;stroke:#000000;stroke-width:1px;stroke-linecap:butt;stroke-linejoin:miter;stroke-opacity:1"
       id="path3023-547"
       sodipodi:cx="52.527931"
       sodipodi:cy="60.078564"
       sodipodi:rx="10.101525"
       sodipodi:ry="10.606602"
       d="m 62.629457,60.078564 c 0,5.857864 -4.522607,10.606601 -10.101526,10.606601 -5.578918,0 -10.101525,-4.748737 -10.101525,-10.606601 0,-5.857865 4.522607,-10.606602 10.101525,-10.606602 5.578919,0 10.101526,4.748737 10.101526,10.606602 z"
       transform="matrix(0.50834352,0,0,0.53788585,110.57261,892.99013)" />
    <path
       sodipodi:type="arc"
       style="fill:#000000;fill-opacity:1;fill-rule:evenodd;stroke:#000000;stroke-width:1px;stroke-linecap:butt;stroke-linejoin:miter;stroke-opacity:1"
       id="path3023-44"
       sodipodi:cx="52.527931"
       sodipodi:cy="60.078564"
       sodipodi:rx="10.101525"
       sodipodi:ry="10.606602"
       d="m 62.629457,60.078564 c 0,5.857864 -4.522607,10.606601 -10.101526,10.606601 -5.578918,0 -10.101525,-4.748737 -10.101525,-10.606601 0,-5.857865 4.522607,-10.606602 10.101525,-10.606602 5.578919,0 10.101526,4.748737 10.101526,10.606602 z"
       transform="matrix(0.50834352,0,0,0.53788585,185.03077,891.36011)" />
  </g>
</svg>
